<svg width="32" height="32" viewBox="0 0 32 32" fill="none" xmlns="http://www.w3.org/2000/svg">
<mask id="mask0_310_81" style="mask-type:luminance" maskUnits="userSpaceOnUse" x="0" y="0" width="32" height="32">
<path d="M32 0H0V32H32V0Z" fill="white"/>
</mask>
<g mask="url(#mask0_310_81)">
<path d="M24.5465 31.8543L22.1615 30.4492V23.03C22.1615 22.7632 21.9452 22.5469 21.6783 22.5469C21.4116 22.5469 21.1952 22.7632 21.1952 23.03V30.4492L18.8102 31.8543C18.7414 31.8949 18.7702 32.0004 18.85 32.0004H24.5066C24.5866 32.0004 24.6153 31.8949 24.5465 31.8543Z" fill="white"/>
<path d="M11.6513 8.73957V0.446C11.6513 0.199688 11.4516 0 11.2053 0H8.81287C8.56657 0 8.36683 0.199688 8.36683 0.446V8.73957C8.36683 9.20451 8.21203 9.65621 7.92678 10.0234L6.86215 11.3939C6.19132 12.2574 5.82715 13.3199 5.82715 14.4134V31.0865C5.82715 31.591 6.23615 32 6.74074 32H13.2774C13.782 32 14.191 31.591 14.191 31.0865V14.4134C14.191 13.3198 13.8268 12.2574 13.156 11.3939L12.0914 10.0234C11.8061 9.65621 11.6513 9.20451 11.6513 8.73957Z" fill="#830E00"/>
<path d="M25.1178 13.8604H18.2399C18.2399 13.8604 16.6331 17.8296 17.3848 20.3665C18.0108 22.4793 19.8721 23.3844 20.9272 23.7363C21.4151 23.899 21.9426 23.899 22.4304 23.7363C23.4855 23.3844 25.3468 22.4793 25.9728 20.3665C26.7247 17.8296 25.1178 13.8604 25.1178 13.8604Z" fill="white"/>
<path d="M17.2163 18.0732C17.15 18.871 17.1791 19.6722 17.3848 20.3662C18.0108 22.479 19.8721 23.384 20.9272 23.736C21.4151 23.8987 21.9425 23.8987 22.4304 23.736C23.4854 23.384 25.3468 22.479 25.9728 20.3662C26.1784 19.6722 26.2076 18.871 26.1414 18.0732H17.2163Z" fill="#830E00"/>
<path d="M14.1906 24.1538H9.75667C9.31613 24.1538 8.95898 23.7967 8.95898 23.3561V17.7039C8.95898 17.2633 9.31613 16.9062 9.75667 16.9062H14.1906V24.1538Z" fill="#B71400"/>
<path d="M11.2046 0H8.8122C8.56589 0 8.36621 0.199688 8.36621 0.446V7.74781H11.6507C11.6507 7.74781 11.6507 2.09437 11.6507 0.446C11.6506 0.199688 11.451 0 11.2046 0Z" fill="#4C0013"/>
<path d="M11.7346 3.0386H8.28294C8.18223 3.0386 8.10059 2.95697 8.10059 2.85622V1.61304C8.10059 1.51235 8.18218 1.43066 8.28294 1.43066H11.7346C11.8353 1.43066 11.917 1.51228 11.917 1.61304V2.85622C11.9169 2.95697 11.8353 3.0386 11.7346 3.0386Z" fill="#4C0013"/>
</g>
</svg>
