<svg width="32" height="32" viewBox="0 0 32 32" fill="none" xmlns="http://www.w3.org/2000/svg">
<path d="M15.9999 23.0333L10.4665 26.3666C10.2221 26.5222 9.96652 26.5888 9.69986 26.5666C9.43319 26.5444 9.19986 26.4555 8.99986 26.2999C8.79986 26.1444 8.6443 25.9499 8.53319 25.7166C8.42208 25.4833 8.39986 25.2222 8.46652 24.9333L9.93319 18.6333L5.03319 14.3999C4.81097 14.1999 4.67208 13.9722 4.61652 13.7166C4.56097 13.461 4.57764 13.211 4.66652 12.9666C4.75541 12.7222 4.88875 12.5222 5.06652 12.3666C5.2443 12.211 5.48875 12.111 5.79986 12.0666L12.2665 11.4999L14.7665 5.5666C14.8776 5.29993 15.0499 5.09993 15.2832 4.9666C15.5165 4.83327 15.7554 4.7666 15.9999 4.7666C16.2443 4.7666 16.4832 4.83327 16.7165 4.9666C16.9499 5.09993 17.1221 5.29993 17.2332 5.5666L19.7332 11.4999L26.1999 12.0666C26.511 12.111 26.7554 12.211 26.9332 12.3666C27.111 12.5222 27.2443 12.7222 27.3332 12.9666C27.4221 13.211 27.4387 13.461 27.3832 13.7166C27.3276 13.9722 27.1887 14.1999 26.9665 14.3999L22.0665 18.6333L23.5332 24.9333C23.5999 25.2222 23.5776 25.4833 23.4665 25.7166C23.3554 25.9499 23.1999 26.1444 22.9999 26.2999C22.7999 26.4555 22.5665 26.5444 22.2999 26.5666C22.0332 26.5888 21.7776 26.5222 21.5332 26.3666L15.9999 23.0333Z" fill="#FFCC00"/>
</svg>
