<svg width="133" height="34" viewBox="0 0 133 34" fill="none" xmlns="http://www.w3.org/2000/svg">
<path d="M11.2716 0.797146C13.9916 0.983813 16.0583 1.85048 17.4716 3.39715C18.9116 4.94381 19.5383 7.14381 19.3516 9.99715C19.165 12.3971 18.4183 14.2505 17.1116 15.5571C15.8316 16.8638 13.9116 17.5171 11.3516 17.5171C10.6583 17.5171 10.0316 17.5171 9.47164 17.5171C8.93831 17.5171 8.41831 17.4905 7.91164 17.4371C7.40497 17.3571 6.89831 17.2238 6.39164 17.0371C5.88497 16.8505 5.32497 16.5705 4.71164 16.1971C4.12497 15.8238 3.63164 15.3705 3.23164 14.8371C2.85831 14.3038 2.55164 13.7305 2.31164 13.1171C2.07164 12.4771 1.89831 11.8238 1.79164 11.1571C1.71164 10.4905 1.67164 9.83715 1.67164 9.19715C1.67164 7.75715 1.91164 6.49048 2.39164 5.39715C2.87164 4.30381 3.53831 3.39715 4.39164 2.67715C5.24497 1.95715 6.25831 1.43715 7.43164 1.11715C8.60497 0.797147 9.88497 0.690481 11.2716 0.797146ZM30.4316 14.5971C30.565 14.5705 30.685 14.5705 30.7916 14.5971C30.925 14.6238 31.0583 14.6371 31.1916 14.6371C31.3516 14.6638 31.4983 14.6905 31.6316 14.7171C31.7916 14.7171 31.9516 14.7305 32.1116 14.7571C32.405 14.8105 32.6983 14.9171 32.9916 15.0771C33.285 15.2105 33.5116 15.4238 33.6716 15.7171C33.8316 16.0371 33.9116 16.3971 33.9116 16.7971C33.9116 16.9838 33.9116 17.1705 33.9116 17.3571C33.9116 17.5438 33.885 17.7305 33.8316 17.9171C33.7783 18.1305 33.7116 18.3571 33.6316 18.5971C33.5516 18.8371 33.4316 19.0238 33.2716 19.1571C32.925 19.4238 32.5516 19.5971 32.1516 19.6771C31.725 19.7305 31.205 19.7438 30.5916 19.7171C29.9783 19.6905 29.4583 19.6905 29.0316 19.7171C29.005 19.7438 28.9783 19.7571 28.9516 19.7571H28.9116V19.7971C28.9116 19.8238 28.8983 19.8505 28.8716 19.8771C28.8716 19.8771 28.8716 19.8905 28.8716 19.9171C28.845 20.5838 28.8316 21.2238 28.8316 21.8371C28.8583 22.4238 28.8716 23.0638 28.8716 23.7571C28.925 25.1438 28.925 26.5038 28.8716 27.8371V28.3971C28.8716 28.7438 28.8716 29.1305 28.8716 29.5571C28.8716 29.9571 28.8316 30.3571 28.7516 30.7571C28.6983 31.1571 28.605 31.5438 28.4716 31.9171C28.365 32.2905 28.1916 32.5971 27.9516 32.8371C27.5516 33.1838 27.1116 33.3571 26.6316 33.3571H26.5516C25.9116 33.3305 25.3916 33.1305 24.9916 32.7571C24.6183 32.4105 24.3383 31.9838 24.1516 31.4771C23.965 30.9705 23.845 30.4505 23.7916 29.9171C23.7383 29.3571 23.7116 28.8638 23.7116 28.4371V4.67715C23.7116 4.65048 23.7116 4.53048 23.7116 4.31715C23.7116 4.07715 23.725 3.81048 23.7516 3.51715C23.805 3.19715 23.885 2.87715 23.9916 2.55715C24.125 2.21048 24.2983 1.93048 24.5116 1.71715C24.725 1.53048 25.005 1.39715 25.3516 1.31715C25.6983 1.21048 26.0183 1.15715 26.3116 1.15715C26.925 1.15715 27.4316 1.35715 27.8316 1.75715C28.1783 2.13048 28.3916 2.53048 28.4716 2.95715C28.5516 3.35715 28.605 3.78381 28.6316 4.23715C28.6583 4.31715 28.6716 4.39715 28.6716 4.47715C28.6716 4.55715 28.685 4.65048 28.7116 4.75715C28.765 5.18381 28.7916 5.63715 28.7916 6.11715C28.7916 6.59715 28.805 7.07715 28.8316 7.55715C28.8316 7.85048 28.8316 8.14381 28.8316 8.43715C28.8583 8.70381 28.8716 8.98381 28.8716 9.27715V13.5971C28.8716 13.7305 28.8716 13.8771 28.8716 14.0371C28.8716 14.1971 28.8983 14.3438 28.9516 14.4771C28.9516 14.5038 29.085 14.5171 29.3516 14.5171C29.6183 14.5171 29.7783 14.5305 29.8316 14.5571C29.9116 14.5571 29.9916 14.5705 30.0716 14.5971C30.1783 14.5971 30.2716 14.5971 30.3516 14.5971H30.4316ZM3.83164 25.3571C3.88497 25.3305 4.05831 25.3305 4.35164 25.3571C4.64497 25.3571 4.96497 25.3705 5.31164 25.3971C5.68497 25.3971 6.04497 25.4105 6.39164 25.4371C6.76497 25.4371 7.03164 25.4371 7.19164 25.4371C7.21831 25.2238 7.23164 24.8371 7.23164 24.2771C7.25831 23.7171 7.28497 23.1438 7.31164 22.5571C7.33831 21.9438 7.36497 21.3971 7.39164 20.9171C7.41831 20.4105 7.44497 20.1171 7.47164 20.0371C7.57831 19.7171 7.73831 19.4505 7.95164 19.2371C8.16497 18.9971 8.41831 18.8105 8.71164 18.6771C9.00497 18.5705 9.31164 18.5171 9.63164 18.5171C10.2183 18.5171 10.7383 18.6771 11.1916 18.9971C11.645 19.2905 11.9383 19.6771 12.0716 20.1571C12.0983 20.2638 12.125 20.5571 12.1516 21.0371C12.1783 21.5171 12.1916 22.0505 12.1916 22.6371C12.2183 23.2238 12.2316 23.7838 12.2316 24.3171C12.2316 24.8505 12.2316 25.2105 12.2316 25.3971V25.4371H18.7516C19.6316 25.4371 20.3383 25.5971 20.8716 25.9171C21.165 26.1038 21.3916 26.3571 21.5516 26.6771C21.7116 26.9705 21.805 27.2905 21.8316 27.6371C21.885 27.9838 21.8716 28.3305 21.7916 28.6771C21.7383 29.0238 21.645 29.3171 21.5116 29.5571C21.2716 29.9838 20.925 30.2505 20.4716 30.3571C20.0183 30.4371 19.5783 30.4771 19.1516 30.4771H3.35164C3.35164 30.4771 3.27164 30.4771 3.11164 30.4771C2.95164 30.4505 2.76497 30.4238 2.55164 30.3971C2.33831 30.3438 2.11164 30.2905 1.87164 30.2371C1.63164 30.1838 1.41831 30.1171 1.23164 30.0371C0.671641 29.7438 0.324974 29.1971 0.191641 28.3971C0.138307 27.9705 0.164974 27.5705 0.271641 27.1971C0.404974 26.8238 0.604974 26.5171 0.871641 26.2771C1.35164 25.8771 1.84497 25.6238 2.35164 25.5171C2.88497 25.4105 3.37831 25.3571 3.83164 25.3571ZM14.7516 10.1571C14.885 9.19715 14.725 8.30381 14.2716 7.47715C13.845 6.65048 13.205 6.09048 12.3516 5.79715C11.7916 5.61048 11.1783 5.51715 10.5116 5.51715C9.84497 5.51715 9.20497 5.63715 8.59164 5.87715C8.00497 6.09048 7.48497 6.43715 7.03164 6.91715C6.60497 7.37048 6.33831 7.97048 6.23164 8.71715C6.15164 9.22381 6.15164 9.74381 6.23164 10.2771C6.31164 10.7838 6.48497 11.2505 6.75164 11.6771C7.04497 12.0771 7.44497 12.4238 7.95164 12.7171C8.45831 13.0105 9.09831 13.1971 9.87164 13.2771C10.405 13.3305 10.925 13.3305 11.4316 13.2771C11.965 13.2238 12.445 13.0905 12.8716 12.8771C13.325 12.6638 13.7116 12.3705 14.0316 11.9971C14.3516 11.5971 14.5783 11.0905 14.7116 10.4771L14.7516 10.1571ZM49.8457 2.19715C51.4724 3.13048 52.6324 4.33048 53.3257 5.79715C53.6724 6.51715 53.899 7.31715 54.0057 8.19715C54.1124 9.07715 54.139 10.0638 54.0857 11.1571C54.0057 12.3571 53.739 13.4371 53.2857 14.3971C52.8324 15.3571 52.2324 16.1838 51.4857 16.8771C50.7657 17.5438 49.9124 18.0638 48.9257 18.4371C47.939 18.7838 46.8857 18.9571 45.7657 18.9571H43.7257C43.459 18.9571 43.1924 18.9571 42.9257 18.9571C42.659 18.9305 42.379 18.8905 42.0857 18.8371C41.7924 18.8371 41.5124 18.7971 41.2457 18.7171C40.979 18.6371 40.699 18.5705 40.4057 18.5171C40.1124 18.3838 39.819 18.2371 39.5257 18.0771C39.259 17.9171 38.939 17.7305 38.5657 17.5171C37.339 16.7171 36.4857 15.6371 36.0057 14.2771C35.7924 13.6638 35.6324 13.0105 35.5257 12.3171C35.419 11.6238 35.3657 10.9438 35.3657 10.2771C35.3657 9.55715 35.419 8.86381 35.5257 8.19715C35.659 7.53048 35.8724 6.89048 36.1657 6.27715C36.379 5.63715 36.699 5.07715 37.1257 4.59715C37.5524 4.09048 38.0324 3.61048 38.5657 3.15715C39.0457 2.75715 39.539 2.42381 40.0457 2.15715C40.5524 1.86381 41.1124 1.63715 41.7257 1.47715C42.259 1.26381 42.8324 1.13048 43.4457 1.07715C44.059 1.02381 44.6457 1.02381 45.2057 1.07715C45.499 1.15715 45.739 1.21048 45.9257 1.23715C46.139 1.23715 46.339 1.23715 46.5257 1.23715C46.739 1.29048 46.9257 1.33048 47.0857 1.35715C47.2724 1.35715 47.4457 1.39715 47.6057 1.47715C47.7924 1.53048 47.9657 1.58381 48.1257 1.63715C48.3124 1.66381 48.4857 1.71715 48.6457 1.79715C48.8057 1.85048 48.9924 1.91715 49.2057 1.99715C49.419 2.07715 49.6324 2.14381 49.8457 2.19715ZM63.2057 28.4371C63.579 28.4371 63.8857 28.5971 64.1257 28.9171C64.3657 29.2371 64.5257 29.6238 64.6057 30.0771C64.659 30.6105 64.6324 31.0505 64.5257 31.3971C64.419 31.7171 64.259 32.0238 64.0457 32.3171C63.6457 32.6638 63.299 32.8771 63.0057 32.9571C62.8724 32.9571 62.7524 32.9838 62.6457 33.0371C62.539 33.0905 62.3924 33.1171 62.2057 33.1171H59.3257H54.3257H48.8457H44.4857H42.6457C42.0857 33.1171 41.5924 33.1038 41.1657 33.0771C40.7657 33.0505 40.4057 32.9571 40.0857 32.7971C39.7924 32.6371 39.5524 32.3971 39.3657 32.0771C39.2057 31.7838 39.1257 31.4905 39.1257 31.1971V25.0771V24.3171V23.5171V22.9571C39.2857 22.3705 39.5524 21.9305 39.9257 21.6371C40.219 21.4505 40.4857 21.3171 40.7257 21.2371C40.9924 21.1305 41.2857 21.0771 41.6057 21.0771C41.659 21.0771 41.819 21.1038 42.0857 21.1571C42.379 21.1838 42.5657 21.1971 42.6457 21.1971C42.8057 21.2505 42.9524 21.3171 43.0857 21.3971C43.2457 21.4505 43.3924 21.5705 43.5257 21.7571C43.579 21.8638 43.6457 21.9838 43.7257 22.1171C43.8057 22.2238 43.8724 22.3571 43.9257 22.5171C44.0057 22.7038 44.0457 22.8771 44.0457 23.0371C44.0724 23.1971 44.1124 23.3571 44.1657 23.5171V24.5171V25.2771V26.5571V27.7571V28.3171H44.9657C45.1257 28.3438 45.3124 28.3571 45.5257 28.3571C45.7124 28.3838 45.9124 28.3971 46.1257 28.3971C46.339 28.3971 46.579 28.3971 46.8457 28.3971C47.0057 28.3971 47.4057 28.3971 48.0457 28.3971C48.7124 28.3971 49.499 28.3971 50.4057 28.3971C51.339 28.3705 52.3524 28.3571 53.4457 28.3571C54.539 28.3571 55.579 28.3571 56.5657 28.3571C57.579 28.3571 58.4857 28.3705 59.2857 28.3971C60.1124 28.3971 60.7257 28.3971 61.1257 28.3971H62.1257C62.179 28.3971 62.299 28.4105 62.4857 28.4371C62.6724 28.4371 62.9124 28.4371 63.2057 28.4371ZM49.2857 9.91715C49.2324 9.62381 49.179 9.37048 49.1257 9.15715C49.0724 8.91715 49.019 8.67715 48.9657 8.43715C48.8324 8.22381 48.7124 8.01048 48.6057 7.79715C48.499 7.58381 48.3524 7.39715 48.1657 7.23715C48.0057 7.07715 47.819 6.94381 47.6057 6.83715C47.3924 6.70381 47.139 6.57048 46.8457 6.43715C46.499 6.35715 46.1657 6.29048 45.8457 6.23715C45.5257 6.15715 45.1924 6.11715 44.8457 6.11715C44.4724 6.11715 44.1124 6.15715 43.7657 6.23715C43.419 6.29048 43.099 6.35715 42.8057 6.43715C42.4857 6.62381 42.179 6.81048 41.8857 6.99715C41.619 7.18381 41.379 7.42381 41.1657 7.71715C40.899 7.93048 40.699 8.21048 40.5657 8.55715C40.4324 8.87715 40.299 9.26381 40.1657 9.71715C40.1657 10.0105 40.1657 10.2905 40.1657 10.5571C40.1657 10.8238 40.1924 11.1038 40.2457 11.3971C40.2457 11.6638 40.299 11.9305 40.4057 12.1971C40.5124 12.4638 40.6457 12.7038 40.8057 12.9171C40.9924 13.1571 41.1924 13.3705 41.4057 13.5571C41.619 13.7171 41.8457 13.8771 42.0857 14.0371C42.379 14.1971 42.6857 14.3438 43.0057 14.4771C43.3257 14.5838 43.7124 14.6638 44.1657 14.7171C44.459 14.7171 44.739 14.7171 45.0057 14.7171C45.2724 14.6905 45.5524 14.6505 45.8457 14.5971C46.379 14.5971 46.899 14.4505 47.4057 14.1571C47.619 14.0505 47.8324 13.9171 48.0457 13.7571C48.2857 13.5705 48.4857 13.3705 48.6457 13.1571C48.9924 12.6771 49.2057 12.1571 49.2857 11.5971V9.91715ZM64.3657 18.0771C64.3657 18.3438 64.339 18.6105 64.2857 18.8771C64.2324 19.1438 64.179 19.4238 64.1257 19.7171C63.8857 20.5705 63.3257 21.0905 62.4457 21.2771C61.5924 21.4638 60.899 21.2771 60.3657 20.7171C59.859 20.1571 59.5524 19.4905 59.4457 18.7171C59.3924 18.5038 59.3524 18.2905 59.3257 18.0771C59.3257 17.8371 59.3257 17.6105 59.3257 17.3971V16.0371L59.4457 5.71715C59.4457 5.34381 59.4324 4.94381 59.4057 4.51715C59.4057 4.06381 59.4324 3.63715 59.4857 3.23715C59.5657 2.81048 59.7124 2.42381 59.9257 2.07715C60.139 1.73048 60.4724 1.45048 60.9257 1.23715C61.139 1.10381 61.3657 1.03715 61.6057 1.03715C61.8724 1.01048 62.1524 1.02381 62.4457 1.07715C63.059 1.15715 63.5124 1.41048 63.8057 1.83715C64.1257 2.26381 64.3124 2.75715 64.3657 3.31715V4.67715V18.0771ZM93.9688 13.1971C94.2622 13.3305 94.5022 13.5305 94.6888 13.7971C94.8755 14.0638 94.9955 14.3438 95.0488 14.6371C95.1822 15.2238 95.0488 15.7571 94.6488 16.2371C94.2755 16.7171 93.8222 17.0771 93.2888 17.3171C92.7555 17.5305 92.1822 17.6905 91.5688 17.7971C90.9822 17.9038 90.3688 17.9571 89.7288 17.9571C89.1155 17.9571 88.5422 17.9571 88.0088 17.9571H81.3688C80.1688 17.9571 79.0488 17.9705 78.0088 17.9971C76.9955 17.9971 75.8888 17.9971 74.6888 17.9971C74.2888 17.9971 73.8888 17.9705 73.4888 17.9171C73.0888 17.8638 72.7022 17.7838 72.3288 17.6771C71.9555 17.5438 71.6088 17.3571 71.2888 17.1171C70.9955 16.8771 70.7555 16.5705 70.5688 16.1971C70.0888 15.2638 69.8488 14.2905 69.8488 13.2771C69.8755 12.2371 69.8888 11.1971 69.8888 10.1571V7.43715C69.8888 7.35715 69.8755 7.14381 69.8488 6.79715C69.8222 6.45048 69.8088 6.05048 69.8088 5.59715C69.8355 5.14381 69.8755 4.67715 69.9288 4.19715C70.0088 3.71715 70.1555 3.31715 70.3688 2.99715C70.5288 2.73048 70.7822 2.51715 71.1288 2.35715C71.5022 2.19715 71.8622 2.07715 72.2088 1.99715C72.5822 1.91715 72.9155 1.86381 73.2088 1.83715C73.5022 1.81048 73.6888 1.79715 73.7688 1.79715H90.1688C90.1955 1.79715 90.4088 1.81048 90.8088 1.83715C91.2088 1.83715 91.6622 1.89048 92.1688 1.99715C92.6755 2.07715 93.1555 2.22381 93.6088 2.43715C94.0622 2.65048 94.3555 2.97048 94.4888 3.39715C94.5422 3.55715 94.5688 3.75715 94.5688 3.99715C94.5955 4.21048 94.6088 4.43715 94.6088 4.67715C94.6088 4.91715 94.5822 5.14381 94.5288 5.35715C94.5022 5.57048 94.4622 5.73048 94.4088 5.83715C94.3022 6.05048 94.1155 6.22381 93.8488 6.35715C93.5822 6.46381 93.3288 6.54381 93.0888 6.59715C92.8488 6.65048 92.5422 6.70381 92.1688 6.75715C91.7955 6.81048 91.3422 6.83715 90.8088 6.83715H89.5688C88.5022 6.78381 87.5155 6.75715 86.6088 6.75715C85.7288 6.73048 84.8488 6.73048 83.9688 6.75715C83.0888 6.75715 82.1688 6.77048 81.2088 6.79715C80.2488 6.79715 79.1688 6.81048 77.9688 6.83715C77.7555 6.83715 77.5155 6.82381 77.2488 6.79715C76.9822 6.77048 76.7155 6.77048 76.4488 6.79715C76.1822 6.82381 75.9555 6.87715 75.7688 6.95715C75.5822 7.03715 75.4622 7.18381 75.4088 7.39715C75.2755 7.85048 75.2222 8.27715 75.2488 8.67715C75.2755 9.07715 75.2755 9.53048 75.2488 10.0371C75.2488 10.2238 75.2355 10.4238 75.2088 10.6371C75.2088 10.8505 75.2088 11.0771 75.2088 11.3171C75.2355 11.5305 75.2888 11.7305 75.3688 11.9171C75.4488 12.1038 75.5822 12.2638 75.7688 12.3971C75.9555 12.5305 76.2222 12.5971 76.5688 12.5971C76.9422 12.5971 77.2488 12.5971 77.4888 12.5971C78.4488 12.6505 79.3555 12.6771 80.2088 12.6771C81.0888 12.6771 82.0088 12.6505 82.9688 12.5971C84.3822 12.5705 85.6622 12.5571 86.8088 12.5571C87.9555 12.5571 89.2355 12.5571 90.6488 12.5571C91.9288 12.5571 93.0355 12.7705 93.9688 13.1971ZM71.3688 26.1971C70.7555 26.1705 70.1688 26.0905 69.6088 25.9571C69.0755 25.7971 68.6355 25.4505 68.2888 24.9171C67.9955 24.4638 67.8488 23.9838 67.8488 23.4771C67.8755 22.9438 68.0755 22.4905 68.4488 22.1171C68.6622 21.9038 68.9288 21.7438 69.2488 21.6371C69.5688 21.5305 69.8755 21.4505 70.1688 21.3971C70.4622 21.3438 70.7155 21.3171 70.9288 21.3171C71.1688 21.3171 71.3022 21.3171 71.3288 21.3171H93.1288C93.5555 21.2905 94.0088 21.2905 94.4888 21.3171C94.9955 21.3438 95.4622 21.4371 95.8888 21.5971C96.3155 21.7305 96.6755 21.9705 96.9688 22.3171C97.2622 22.6371 97.4088 23.0905 97.4088 23.6771C97.4088 24.3438 97.1822 24.8505 96.7288 25.1971C96.2755 25.5171 95.7288 25.7571 95.0888 25.9171C94.4755 26.0505 93.8355 26.1305 93.1688 26.1571C92.5022 26.1571 91.9555 26.1571 91.5288 26.1571H89.9688C89.4355 26.1838 88.9155 26.1971 88.4088 26.1971C87.9022 26.1705 87.3822 26.1571 86.8488 26.1571H85.3288C85.3555 26.9038 85.3822 27.7038 85.4088 28.5571C85.4355 29.3838 85.3955 30.1038 85.2888 30.7171C85.2355 31.2238 85.1022 31.7038 84.8888 32.1571C84.7022 32.6371 84.3822 33.0238 83.9288 33.3171C83.5288 33.5838 83.0622 33.7171 82.5288 33.7171C81.9955 33.7438 81.5155 33.6371 81.0888 33.3971C80.7422 33.1838 80.4755 32.8771 80.2888 32.4771C80.1288 32.0771 80.0222 31.6905 79.9688 31.3171C79.9155 31.0238 79.8888 30.7038 79.8888 30.3571C79.9155 30.0105 79.9288 29.6905 79.9288 29.3971C79.9022 28.9171 79.8888 28.3971 79.8888 27.8371C79.8888 27.2505 79.8888 26.6771 79.8888 26.1171H78.8888C78.1422 26.1171 77.4622 26.1305 76.8488 26.1571C76.2622 26.1571 75.6888 26.1705 75.1288 26.1971C74.5688 26.1971 73.9822 26.1971 73.3688 26.1971C72.7822 26.1971 72.1155 26.1971 71.3688 26.1971ZM111.461 6.19715C111.461 6.19715 111.447 6.38381 111.421 6.75715C111.421 7.10381 111.421 7.50381 111.421 7.95715C111.421 8.41048 111.421 8.83715 111.421 9.23715C111.447 9.61048 111.461 9.82381 111.461 9.87715C112.207 10.8105 112.914 11.6638 113.581 12.4371C114.274 13.1838 114.981 13.9171 115.701 14.6371C116.207 15.1438 116.714 15.6905 117.221 16.2771C117.727 16.8638 118.074 17.4638 118.261 18.0771C118.341 18.3171 118.354 18.5838 118.301 18.8771C118.247 19.1705 118.074 19.4238 117.781 19.6371C117.327 19.9038 116.847 20.0371 116.341 20.0371C115.754 20.0371 115.194 19.9171 114.661 19.6771C114.127 19.4371 113.701 19.1971 113.381 18.9571C112.874 18.5838 112.407 18.1971 111.981 17.7971C111.554 17.3705 111.127 16.9438 110.701 16.5171C110.407 16.2238 110.074 15.8905 109.701 15.5171C109.327 15.1171 108.954 14.7705 108.581 14.4771L107.501 15.5571C107.314 15.7438 107.127 15.9305 106.941 16.1171C106.754 16.2771 106.581 16.4505 106.421 16.6371C106.074 17.0105 105.714 17.3971 105.341 17.7971C104.967 18.1705 104.541 18.5305 104.061 18.8771C102.967 19.6771 101.941 20.0771 100.981 20.0771C100.847 20.0771 100.727 20.0771 100.621 20.0771C100.541 20.0771 100.434 20.0505 100.301 19.9971C99.714 19.8638 99.3274 19.6238 99.1407 19.2771C98.954 18.9838 98.8874 18.6505 98.9407 18.2771C99.0207 17.9038 99.1407 17.5705 99.3007 17.2771C99.514 16.9838 99.754 16.7038 100.021 16.4371C100.287 16.1438 100.554 15.8505 100.821 15.5571C101.061 15.2905 101.434 14.8771 101.941 14.3171C102.474 13.7305 103.007 13.1305 103.541 12.5171C104.074 11.8771 104.567 11.3038 105.021 10.7971C105.474 10.2905 105.754 9.98382 105.861 9.87715V6.19715H103.301C102.981 6.19715 102.607 6.21048 102.181 6.23715C101.754 6.23715 101.327 6.21048 100.901 6.15715C100.501 6.10381 100.127 5.99715 99.7807 5.83715C99.434 5.65048 99.1807 5.35715 99.0207 4.95715C98.8874 4.66381 98.794 4.33048 98.7407 3.95715C98.714 3.58381 98.7407 3.23715 98.8207 2.91715C98.9274 2.54381 99.1674 2.29048 99.5407 2.15715C99.914 1.99715 100.274 1.89048 100.621 1.83715C100.674 1.83715 100.887 1.83715 101.261 1.83715C101.661 1.83715 102.087 1.83715 102.541 1.83715C102.994 1.83715 103.421 1.83715 103.821 1.83715C104.221 1.83715 104.461 1.82381 104.541 1.79715H113.901C114.967 1.79715 115.861 1.86381 116.581 1.99715C117.327 2.13048 117.927 2.46381 118.381 2.99715C118.514 3.15715 118.594 3.37048 118.621 3.63715C118.674 3.90381 118.674 4.18381 118.621 4.47715C118.594 4.74381 118.514 4.99715 118.381 5.23715C118.274 5.47715 118.114 5.65048 117.901 5.75715C117.687 5.83715 117.434 5.93048 117.141 6.03715C116.847 6.11715 116.594 6.17048 116.381 6.19715C116.007 6.22381 115.621 6.23715 115.221 6.23715C114.847 6.21048 114.474 6.19715 114.101 6.19715H111.461ZM107.101 33.5971C106.007 33.5971 105.127 33.3571 104.461 32.8771C103.794 32.4238 103.461 31.8905 103.461 31.2771V25.0771C103.407 24.4905 103.407 23.8905 103.461 23.2771C103.514 22.7171 103.727 22.2638 104.101 21.9171C104.501 21.5705 105.007 21.3971 105.621 21.3971C105.754 21.3971 105.994 21.4105 106.341 21.4371C106.687 21.4371 106.927 21.4638 107.061 21.5171C107.407 21.6238 107.674 21.7838 107.861 21.9971C108.074 22.2105 108.234 22.4638 108.341 22.7571C108.447 23.0238 108.514 23.3171 108.541 23.6371C108.567 23.9305 108.594 24.2238 108.621 24.5171C108.621 24.6238 108.621 24.8905 108.621 25.3171C108.647 25.7438 108.661 26.2105 108.661 26.7171C108.687 27.1971 108.701 27.6505 108.701 28.0771C108.727 28.5038 108.754 28.7571 108.781 28.8371C108.861 28.8638 109.074 28.9038 109.421 28.9571C109.794 28.9838 110.474 28.9971 111.461 28.9971C112.314 28.9971 112.834 28.9838 113.021 28.9571C113.234 28.9305 113.354 28.9171 113.381 28.9171H126.461C126.461 28.9171 126.541 28.9438 126.701 28.9971C126.887 29.0505 127.087 29.1438 127.301 29.2771C127.514 29.3838 127.714 29.5438 127.901 29.7571C128.087 29.9438 128.207 30.1705 128.261 30.4371C128.394 31.4505 128.221 32.2371 127.741 32.7971C127.421 33.1705 127.074 33.3971 126.701 33.4771C126.327 33.5571 126.127 33.5971 126.101 33.5971H107.101ZM127.421 14.3571V19.5571C127.394 19.8505 127.354 20.1571 127.301 20.4771C127.247 20.7705 127.141 21.0638 126.981 21.3571C126.794 21.7038 126.567 21.9571 126.301 22.1171C125.874 22.4105 125.434 22.5571 124.981 22.5571C124.581 22.5571 124.207 22.4505 123.861 22.2371C123.594 22.0771 123.381 21.8771 123.221 21.6371C123.061 21.3971 122.927 21.1705 122.821 20.9571C122.741 20.7438 122.687 20.5571 122.661 20.3971C122.634 20.2105 122.621 20.1171 122.621 20.1171V4.51715C122.621 4.38381 122.634 4.09048 122.661 3.63715C122.714 3.15715 122.821 2.75715 122.981 2.43715C123.247 1.87715 123.794 1.55715 124.621 1.47715C125.074 1.42381 125.487 1.45048 125.861 1.55715C126.261 1.66381 126.567 1.83715 126.781 2.07715C126.941 2.29048 127.047 2.50381 127.101 2.71715C127.181 2.90381 127.247 3.10381 127.301 3.31715C127.381 3.58381 127.421 3.86381 127.421 4.15715C127.447 4.45048 127.447 4.74381 127.421 5.03715V9.87715C127.527 9.87715 127.727 9.89048 128.021 9.91715C128.314 9.94381 128.621 9.97048 128.941 9.99715C129.287 9.99715 129.607 10.0105 129.901 10.0371C130.194 10.0638 130.394 10.0905 130.501 10.1171C131.034 10.2238 131.407 10.3838 131.621 10.5971C131.834 10.7838 131.981 11.0238 132.061 11.3171C132.114 11.6105 132.141 11.9571 132.141 12.3571C132.141 12.7305 132.061 13.0505 131.901 13.3171C131.581 13.8505 131.101 14.1571 130.461 14.2371C129.821 14.3171 129.114 14.3571 128.341 14.3571H127.421Z" fill="url(#paint0_radial_280_69)" fill-opacity="0.8"/>
<defs>
<radialGradient id="paint0_radial_280_69" cx="0" cy="0" r="1" gradientUnits="userSpaceOnUse" gradientTransform="translate(150.946 -0.18001) rotate(167.289) scale(204.512 565.411)">
<stop stop-color="#B70707"/>
<stop offset="0.507456" stop-color="#D07272"/>
<stop offset="1" stop-color="#E9DDDD"/>
</radialGradient>
</defs>
</svg>
